<?xml version="1.0" encoding="UTF-8"?>
<svg id="Calque_2" data-name="Calque 2" xmlns="http://www.w3.org/2000/svg" viewBox="0 0 899.3 884.65">
  <defs>
    <style>
      .cls-1 {
        fill: #000;
        stroke-width: 0px;
      }
    </style>
  </defs>
  <g id="Calque_1-2" data-name="Calque 1">
    <g>
      <polygon class="cls-1" points="2.95 433.15 434.69 1.41 434.69 365.98 406.14 397.65 370.74 354.8 370.74 162.9 210.51 323.12 347.45 460.06 304.6 502.91 172.32 370.63 166.73 365.05 47.82 483.96 0 436.14 2.95 433.15"/>
      <polygon class="cls-1" points="464.36 0 464.36 364.38 718.4 618.42 899.3 437.51 721.6 259.81 629.23 352.19 683.11 406.08 724.81 364.38 801.79 441.36 721.6 521.55 534.92 334.87 532.36 164.23 643.34 275.21 688.25 230.3 464.36 0"/>
      <polygon class="cls-1" points="203.9 638.95 450.24 392.61 697.23 639.59 452.17 884.65 404.05 836.54 605.49 635.1 552.24 581.86 345.68 788.42 302.05 744.8 509.26 537.59 456.02 484.34 252.45 687.92 203.9 638.95"/>
      <polygon class="cls-1" points="186.22 518.82 235.7 568.3 185.53 618.46 135.72 568.64 186.22 518.82"/>
    </g>
  </g>
</svg>